<mxfile host="Electron" agent="Mozilla/5.0 (X11; Linux x86_64) AppleWebKit/537.36 (KHTML, like Gecko) draw.io/25.0.2 Chrome/128.0.6613.186 Electron/32.2.5 Safari/537.36" version="25.0.2">
  <diagram id="R2lEEEUBdFMjLlhIrx00" name="Page-1">
    <mxGraphModel dx="1050" dy="626" grid="1" gridSize="10" guides="1" tooltips="1" connect="1" arrows="1" fold="1" page="1" pageScale="1" pageWidth="1100" pageHeight="850" math="0" shadow="0" extFonts="Permanent Marker^https://fonts.googleapis.com/css?family=Permanent+Marker">
      <root>
        <mxCell id="0" />
        <mxCell id="1" parent="0" />
        <mxCell id="kmE7Hf1DCv8pngG5Te-d-6" style="edgeStyle=orthogonalEdgeStyle;rounded=0;orthogonalLoop=1;jettySize=auto;html=1;exitX=0;exitY=0.5;exitDx=0;exitDy=0;entryX=1;entryY=0.5;entryDx=0;entryDy=0;" parent="1" source="kmE7Hf1DCv8pngG5Te-d-1" target="kmE7Hf1DCv8pngG5Te-d-3" edge="1">
          <mxGeometry relative="1" as="geometry" />
        </mxCell>
        <mxCell id="kmE7Hf1DCv8pngG5Te-d-7" style="edgeStyle=orthogonalEdgeStyle;rounded=0;orthogonalLoop=1;jettySize=auto;html=1;entryX=1;entryY=0.5;entryDx=0;entryDy=0;" parent="1" source="kmE7Hf1DCv8pngG5Te-d-1" target="kmE7Hf1DCv8pngG5Te-d-2" edge="1">
          <mxGeometry relative="1" as="geometry" />
        </mxCell>
        <mxCell id="kmE7Hf1DCv8pngG5Te-d-1" value="devices" style="whiteSpace=wrap;html=1;align=center;" parent="1" vertex="1">
          <mxGeometry x="220" y="80" width="100" height="40" as="geometry" />
        </mxCell>
        <mxCell id="kmE7Hf1DCv8pngG5Te-d-2" value="device type" style="ellipse;whiteSpace=wrap;html=1;align=center;" parent="1" vertex="1">
          <mxGeometry x="40" y="110" width="100" height="40" as="geometry" />
        </mxCell>
        <mxCell id="kmE7Hf1DCv8pngG5Te-d-3" value="device id" style="ellipse;whiteSpace=wrap;html=1;align=center;fontStyle=4;" parent="1" vertex="1">
          <mxGeometry x="40" y="50" width="100" height="40" as="geometry" />
        </mxCell>
        <mxCell id="kmE7Hf1DCv8pngG5Te-d-22" style="edgeStyle=orthogonalEdgeStyle;rounded=0;orthogonalLoop=1;jettySize=auto;html=1;entryX=0;entryY=0.5;entryDx=0;entryDy=0;" parent="1" source="kmE7Hf1DCv8pngG5Te-d-24" target="aPC9smlM7CnTZv2eQgV2-4" edge="1">
          <mxGeometry relative="1" as="geometry">
            <mxPoint x="720" y="100" as="targetPoint" />
          </mxGeometry>
        </mxCell>
        <mxCell id="kmE7Hf1DCv8pngG5Te-d-23" style="edgeStyle=orthogonalEdgeStyle;rounded=0;orthogonalLoop=1;jettySize=auto;html=1;entryX=0;entryY=0.5;entryDx=0;entryDy=0;" parent="1" source="kmE7Hf1DCv8pngG5Te-d-24" target="kmE7Hf1DCv8pngG5Te-d-26" edge="1">
          <mxGeometry relative="1" as="geometry" />
        </mxCell>
        <mxCell id="kmE7Hf1DCv8pngG5Te-d-69" style="edgeStyle=orthogonalEdgeStyle;rounded=0;orthogonalLoop=1;jettySize=auto;html=1;entryX=0;entryY=0.5;entryDx=0;entryDy=0;" parent="1" source="kmE7Hf1DCv8pngG5Te-d-24" target="aPC9smlM7CnTZv2eQgV2-3" edge="1">
          <mxGeometry relative="1" as="geometry">
            <mxPoint x="720" y="160" as="targetPoint" />
          </mxGeometry>
        </mxCell>
        <mxCell id="kmE7Hf1DCv8pngG5Te-d-24" value="spots" style="whiteSpace=wrap;html=1;align=center;" parent="1" vertex="1">
          <mxGeometry x="550" y="80" width="100" height="40" as="geometry" />
        </mxCell>
        <mxCell id="kmE7Hf1DCv8pngG5Te-d-26" value="spot number" style="ellipse;whiteSpace=wrap;html=1;align=center;fontStyle=4;" parent="1" vertex="1">
          <mxGeometry x="710" y="20" width="100" height="40" as="geometry" />
        </mxCell>
        <mxCell id="kmE7Hf1DCv8pngG5Te-d-32" style="edgeStyle=orthogonalEdgeStyle;rounded=0;orthogonalLoop=1;jettySize=auto;html=1;entryX=1;entryY=0.5;entryDx=0;entryDy=0;" parent="1" source="kmE7Hf1DCv8pngG5Te-d-30" target="kmE7Hf1DCv8pngG5Te-d-31" edge="1">
          <mxGeometry relative="1" as="geometry" />
        </mxCell>
        <mxCell id="kmE7Hf1DCv8pngG5Te-d-34" style="edgeStyle=orthogonalEdgeStyle;rounded=0;orthogonalLoop=1;jettySize=auto;html=1;entryX=1;entryY=0.5;entryDx=0;entryDy=0;" parent="1" source="kmE7Hf1DCv8pngG5Te-d-30" target="kmE7Hf1DCv8pngG5Te-d-33" edge="1">
          <mxGeometry relative="1" as="geometry" />
        </mxCell>
        <mxCell id="kmE7Hf1DCv8pngG5Te-d-37" style="edgeStyle=orthogonalEdgeStyle;rounded=0;orthogonalLoop=1;jettySize=auto;html=1;entryX=1;entryY=0.5;entryDx=0;entryDy=0;" parent="1" source="kmE7Hf1DCv8pngG5Te-d-30" target="kmE7Hf1DCv8pngG5Te-d-35" edge="1">
          <mxGeometry relative="1" as="geometry" />
        </mxCell>
        <mxCell id="kmE7Hf1DCv8pngG5Te-d-38" style="edgeStyle=orthogonalEdgeStyle;rounded=0;orthogonalLoop=1;jettySize=auto;html=1;entryX=0;entryY=0.5;entryDx=0;entryDy=0;" parent="1" source="kmE7Hf1DCv8pngG5Te-d-30" target="ZBX8gpUidaj5Vg1-KPUg-3" edge="1">
          <mxGeometry relative="1" as="geometry">
            <mxPoint x="220" y="520" as="targetPoint" />
            <Array as="points">
              <mxPoint x="180" y="460" />
              <mxPoint x="180" y="520" />
            </Array>
          </mxGeometry>
        </mxCell>
        <mxCell id="kmE7Hf1DCv8pngG5Te-d-63" style="edgeStyle=orthogonalEdgeStyle;rounded=0;orthogonalLoop=1;jettySize=auto;html=1;entryX=1;entryY=0.5;entryDx=0;entryDy=0;" parent="1" source="kmE7Hf1DCv8pngG5Te-d-30" target="kmE7Hf1DCv8pngG5Te-d-62" edge="1">
          <mxGeometry relative="1" as="geometry" />
        </mxCell>
        <mxCell id="pcOdsuL0SFDr3W5PoMTv-9" style="edgeStyle=orthogonalEdgeStyle;rounded=0;orthogonalLoop=1;jettySize=auto;html=1;entryX=1;entryY=0.5;entryDx=0;entryDy=0;" parent="1" source="kmE7Hf1DCv8pngG5Te-d-30" target="pcOdsuL0SFDr3W5PoMTv-8" edge="1">
          <mxGeometry relative="1" as="geometry" />
        </mxCell>
        <mxCell id="9uqExpVD-2GpMVSEPIku-11" style="edgeStyle=orthogonalEdgeStyle;rounded=0;orthogonalLoop=1;jettySize=auto;html=1;entryX=0;entryY=0.5;entryDx=0;entryDy=0;exitX=0;exitY=0.5;exitDx=0;exitDy=0;" parent="1" source="kmE7Hf1DCv8pngG5Te-d-30" target="9uqExpVD-2GpMVSEPIku-9" edge="1">
          <mxGeometry relative="1" as="geometry">
            <Array as="points">
              <mxPoint x="180" y="460" />
              <mxPoint x="180" y="580" />
            </Array>
          </mxGeometry>
        </mxCell>
        <mxCell id="kmE7Hf1DCv8pngG5Te-d-30" value="sessions" style="whiteSpace=wrap;html=1;align=center;" parent="1" vertex="1">
          <mxGeometry x="220" y="440" width="100" height="40" as="geometry" />
        </mxCell>
        <mxCell id="kmE7Hf1DCv8pngG5Te-d-31" value="session id" style="ellipse;whiteSpace=wrap;html=1;align=center;fontStyle=4;" parent="1" vertex="1">
          <mxGeometry x="40" y="320" width="100" height="40" as="geometry" />
        </mxCell>
        <mxCell id="kmE7Hf1DCv8pngG5Te-d-33" value="start time" style="ellipse;whiteSpace=wrap;html=1;align=center;" parent="1" vertex="1">
          <mxGeometry x="40" y="380" width="100" height="40" as="geometry" />
        </mxCell>
        <mxCell id="kmE7Hf1DCv8pngG5Te-d-35" value="end time" style="ellipse;whiteSpace=wrap;html=1;align=center;" parent="1" vertex="1">
          <mxGeometry x="40" y="440" width="100" height="40" as="geometry" />
        </mxCell>
        <mxCell id="kmE7Hf1DCv8pngG5Te-d-49" style="edgeStyle=orthogonalEdgeStyle;rounded=0;orthogonalLoop=1;jettySize=auto;html=1;entryX=0;entryY=0.5;entryDx=0;entryDy=0;exitX=1;exitY=0.5;exitDx=0;exitDy=0;" parent="1" source="kmE7Hf1DCv8pngG5Te-d-39" target="kmE7Hf1DCv8pngG5Te-d-45" edge="1">
          <mxGeometry relative="1" as="geometry" />
        </mxCell>
        <mxCell id="kmE7Hf1DCv8pngG5Te-d-56" style="edgeStyle=orthogonalEdgeStyle;rounded=0;orthogonalLoop=1;jettySize=auto;html=1;entryX=0;entryY=0.5;entryDx=0;entryDy=0;exitX=1;exitY=0.5;exitDx=0;exitDy=0;" parent="1" source="kmE7Hf1DCv8pngG5Te-d-39" target="kmE7Hf1DCv8pngG5Te-d-53" edge="1">
          <mxGeometry relative="1" as="geometry" />
        </mxCell>
        <mxCell id="kmE7Hf1DCv8pngG5Te-d-57" style="edgeStyle=orthogonalEdgeStyle;rounded=0;orthogonalLoop=1;jettySize=auto;html=1;entryX=0;entryY=0.5;entryDx=0;entryDy=0;exitX=1;exitY=0.5;exitDx=0;exitDy=0;" parent="1" source="kmE7Hf1DCv8pngG5Te-d-39" target="kmE7Hf1DCv8pngG5Te-d-54" edge="1">
          <mxGeometry relative="1" as="geometry" />
        </mxCell>
        <mxCell id="kmE7Hf1DCv8pngG5Te-d-58" style="edgeStyle=orthogonalEdgeStyle;rounded=0;orthogonalLoop=1;jettySize=auto;html=1;entryX=0;entryY=0.5;entryDx=0;entryDy=0;exitX=1;exitY=0.5;exitDx=0;exitDy=0;" parent="1" source="kmE7Hf1DCv8pngG5Te-d-39" target="kmE7Hf1DCv8pngG5Te-d-55" edge="1">
          <mxGeometry relative="1" as="geometry" />
        </mxCell>
        <mxCell id="kmE7Hf1DCv8pngG5Te-d-111" style="edgeStyle=orthogonalEdgeStyle;rounded=0;orthogonalLoop=1;jettySize=auto;html=1;entryX=0;entryY=0.5;entryDx=0;entryDy=0;" parent="1" source="kmE7Hf1DCv8pngG5Te-d-39" target="kmE7Hf1DCv8pngG5Te-d-110" edge="1">
          <mxGeometry relative="1" as="geometry" />
        </mxCell>
        <mxCell id="ZBX8gpUidaj5Vg1-KPUg-4" style="edgeStyle=orthogonalEdgeStyle;rounded=0;orthogonalLoop=1;jettySize=auto;html=1;entryX=1;entryY=0.5;entryDx=0;entryDy=0;" parent="1" source="kmE7Hf1DCv8pngG5Te-d-39" target="kmE7Hf1DCv8pngG5Te-d-114" edge="1">
          <mxGeometry relative="1" as="geometry">
            <Array as="points">
              <mxPoint x="680" y="460" />
              <mxPoint x="680" y="580" />
            </Array>
          </mxGeometry>
        </mxCell>
        <mxCell id="kmE7Hf1DCv8pngG5Te-d-39" value="&lt;span lang=&quot;EN-US&quot; class=&quot;TextRun SCXW32543881 BCX0&quot; style=&quot;animation: 0s ease 0s 1 normal none running none ; appearance: none ; backface-visibility: visible ; background: none 0% 0% / auto repeat scroll padding-box border-box rgba(0 , 0 , 0 , 0) ; border-color: rgb(0 , 0 , 0) ; border-collapse: separate ; border-width: 0px ; border-style: none ; border-spacing: 0px ; border-radius: 0px ; box-shadow: none ; box-sizing: content-box ; caption-side: top ; clear: none ; clip: auto ; content: normal ; cursor: text ; direction: ltr ; display: inline ; empty-cells: show ; float: none ; font-family: &amp;quot;wordvisi_msfontservice&amp;quot; , &amp;quot;arial&amp;quot; , &amp;quot;arial_embeddedfont&amp;quot; , &amp;quot;arial_msfontservice&amp;quot; , sans-serif ; height: auto ; line-height: 25.575px ; list-style: outside none disc ; margin: 0px ; max-height: none ; max-width: none ; min-height: 0px ; min-width: 0px ; opacity: 1 ; outline: rgb(0 , 0 , 0) none 0px ; overflow: visible ; overflow-wrap: break-word ; padding: 0px ; perspective: none ; perspective-origin: 0px 0px ; position: static ; resize: none ; speak: normal ; table-layout: auto ; text-align: left ; text-overflow: clip ; text-shadow: none ; transform: none ; transform-origin: 0px 0px ; transform-style: flat ; transition: all ; unicode-bidi: normal ; vertical-align: baseline ; visibility: visible ; width: auto ; word-break: normal ; z-index: auto ; zoom: 1&quot;&gt;&lt;span class=&quot;NormalTextRun SCXW32543881 BCX0&quot;&gt;&lt;font style=&quot;font-size: 12px&quot;&gt;admin&lt;/font&gt;&lt;/span&gt;&lt;/span&gt;" style="whiteSpace=wrap;html=1;align=center;" parent="1" vertex="1">
          <mxGeometry x="550" y="440" width="100" height="40" as="geometry" />
        </mxCell>
        <mxCell id="kmE7Hf1DCv8pngG5Te-d-45" value="id" style="ellipse;whiteSpace=wrap;html=1;align=center;fontStyle=4;" parent="1" vertex="1">
          <mxGeometry x="710" y="320" width="100" height="40" as="geometry" />
        </mxCell>
        <mxCell id="kmE7Hf1DCv8pngG5Te-d-53" value="title" style="ellipse;whiteSpace=wrap;html=1;align=center;" parent="1" vertex="1">
          <mxGeometry x="710" y="380" width="100" height="40" as="geometry" />
        </mxCell>
        <mxCell id="kmE7Hf1DCv8pngG5Te-d-54" value="&lt;u&gt;username&lt;/u&gt;" style="ellipse;whiteSpace=wrap;html=1;align=center;" parent="1" vertex="1">
          <mxGeometry x="710" y="440" width="100" height="40" as="geometry" />
        </mxCell>
        <mxCell id="kmE7Hf1DCv8pngG5Te-d-55" value="password" style="ellipse;whiteSpace=wrap;html=1;align=center;" parent="1" vertex="1">
          <mxGeometry x="710" y="500" width="100" height="40" as="geometry" />
        </mxCell>
        <mxCell id="kmE7Hf1DCv8pngG5Te-d-59" value="create" style="shape=rhombus;perimeter=rhombusPerimeter;whiteSpace=wrap;html=1;align=center;" parent="1" vertex="1">
          <mxGeometry x="390" y="435" width="100" height="50" as="geometry" />
        </mxCell>
        <mxCell id="kmE7Hf1DCv8pngG5Te-d-60" value="" style="shape=link;html=1;rounded=0;entryX=1;entryY=0.5;entryDx=0;entryDy=0;exitX=0;exitY=0.5;exitDx=0;exitDy=0;" parent="1" source="kmE7Hf1DCv8pngG5Te-d-59" target="kmE7Hf1DCv8pngG5Te-d-30" edge="1">
          <mxGeometry relative="1" as="geometry">
            <mxPoint x="270" y="480" as="sourcePoint" />
            <mxPoint x="420" y="510" as="targetPoint" />
          </mxGeometry>
        </mxCell>
        <mxCell id="kmE7Hf1DCv8pngG5Te-d-61" value="M" style="resizable=0;html=1;align=right;verticalAlign=bottom;" parent="kmE7Hf1DCv8pngG5Te-d-60" connectable="0" vertex="1">
          <mxGeometry x="1" relative="1" as="geometry">
            <mxPoint x="20.4" y="20" as="offset" />
          </mxGeometry>
        </mxCell>
        <mxCell id="kmE7Hf1DCv8pngG5Te-d-62" value="total price" style="ellipse;whiteSpace=wrap;html=1;align=center;" parent="1" vertex="1">
          <mxGeometry x="40" y="560" width="100" height="40" as="geometry" />
        </mxCell>
        <mxCell id="kmE7Hf1DCv8pngG5Te-d-64" value="assigned" style="shape=rhombus;perimeter=rhombusPerimeter;whiteSpace=wrap;html=1;align=center;" parent="1" vertex="1">
          <mxGeometry x="390" y="75" width="100" height="50" as="geometry" />
        </mxCell>
        <mxCell id="kmE7Hf1DCv8pngG5Te-d-105" value="" style="endArrow=none;html=1;rounded=0;entryX=0;entryY=0.5;entryDx=0;entryDy=0;exitX=1;exitY=0.5;exitDx=0;exitDy=0;" parent="1" source="kmE7Hf1DCv8pngG5Te-d-59" target="kmE7Hf1DCv8pngG5Te-d-39" edge="1">
          <mxGeometry relative="1" as="geometry">
            <mxPoint x="580" y="389.2" as="sourcePoint" />
            <mxPoint x="510" y="389.2" as="targetPoint" />
          </mxGeometry>
        </mxCell>
        <mxCell id="kmE7Hf1DCv8pngG5Te-d-106" value="1" style="resizable=0;html=1;align=right;verticalAlign=bottom;" parent="kmE7Hf1DCv8pngG5Te-d-105" connectable="0" vertex="1">
          <mxGeometry x="1" relative="1" as="geometry">
            <mxPoint x="-9.999999999999998" y="20" as="offset" />
          </mxGeometry>
        </mxCell>
        <mxCell id="kmE7Hf1DCv8pngG5Te-d-107" value="use" style="shape=rhombus;perimeter=rhombusPerimeter;whiteSpace=wrap;html=1;align=center;" parent="1" vertex="1">
          <mxGeometry x="550" y="290" width="100" height="50" as="geometry" />
        </mxCell>
        <mxCell id="kmE7Hf1DCv8pngG5Te-d-108" value="" style="shape=link;html=1;rounded=0;entryX=1;entryY=0;entryDx=0;entryDy=0;exitX=0;exitY=1;exitDx=0;exitDy=0;" parent="1" source="kmE7Hf1DCv8pngG5Te-d-107" target="kmE7Hf1DCv8pngG5Te-d-30" edge="1">
          <mxGeometry relative="1" as="geometry">
            <mxPoint x="570" y="350" as="sourcePoint" />
            <mxPoint x="290" y="430" as="targetPoint" />
          </mxGeometry>
        </mxCell>
        <mxCell id="kmE7Hf1DCv8pngG5Te-d-109" value="1" style="resizable=0;html=1;align=right;verticalAlign=bottom;" parent="kmE7Hf1DCv8pngG5Te-d-108" connectable="0" vertex="1">
          <mxGeometry x="1" relative="1" as="geometry">
            <mxPoint x="5" y="-3" as="offset" />
          </mxGeometry>
        </mxCell>
        <mxCell id="kmE7Hf1DCv8pngG5Te-d-110" value="age" style="ellipse;whiteSpace=wrap;html=1;align=center;" parent="1" vertex="1">
          <mxGeometry x="710" y="560" width="100" height="40" as="geometry" />
        </mxCell>
        <mxCell id="kmE7Hf1DCv8pngG5Te-d-114" value="&lt;u&gt;phone number&lt;/u&gt;" style="ellipse;shape=doubleEllipse;margin=3;whiteSpace=wrap;html=1;align=center;" parent="1" vertex="1">
          <mxGeometry x="550" y="560" width="100" height="40" as="geometry" />
        </mxCell>
        <mxCell id="kmE7Hf1DCv8pngG5Te-d-116" value="" style="endArrow=none;html=1;rounded=0;entryX=0.5;entryY=1;entryDx=0;entryDy=0;exitX=0.5;exitY=0;exitDx=0;exitDy=0;" parent="1" source="kmE7Hf1DCv8pngG5Te-d-107" target="kmE7Hf1DCv8pngG5Te-d-24" edge="1">
          <mxGeometry relative="1" as="geometry">
            <mxPoint x="520" y="280" as="sourcePoint" />
            <mxPoint x="490" y="170" as="targetPoint" />
          </mxGeometry>
        </mxCell>
        <mxCell id="kmE7Hf1DCv8pngG5Te-d-117" value="1" style="resizable=0;html=1;align=right;verticalAlign=bottom;" parent="kmE7Hf1DCv8pngG5Te-d-116" connectable="0" vertex="1">
          <mxGeometry x="1" relative="1" as="geometry">
            <mxPoint x="-25" y="20" as="offset" />
          </mxGeometry>
        </mxCell>
        <mxCell id="aPC9smlM7CnTZv2eQgV2-3" value="&lt;u&gt;spot state&lt;/u&gt;" style="ellipse;whiteSpace=wrap;html=1;align=center;" parent="1" vertex="1">
          <mxGeometry x="710" y="80" width="100" height="40" as="geometry" />
        </mxCell>
        <mxCell id="aPC9smlM7CnTZv2eQgV2-4" value="privacy" style="ellipse;whiteSpace=wrap;html=1;align=center;" parent="1" vertex="1">
          <mxGeometry x="710" y="140" width="100" height="40" as="geometry" />
        </mxCell>
        <mxCell id="pcOdsuL0SFDr3W5PoMTv-8" value="duration" style="ellipse;whiteSpace=wrap;html=1;align=center;" parent="1" vertex="1">
          <mxGeometry x="40" y="500" width="100" height="40" as="geometry" />
        </mxCell>
        <mxCell id="d-MJY2TgEkJhI2muAv1e-1" style="edgeStyle=orthogonalEdgeStyle;rounded=0;orthogonalLoop=1;jettySize=auto;html=1;exitX=0;exitY=0.5;exitDx=0;exitDy=0;entryX=1;entryY=0.5;entryDx=0;entryDy=0;" parent="1" source="d-MJY2TgEkJhI2muAv1e-3" target="d-MJY2TgEkJhI2muAv1e-5" edge="1">
          <mxGeometry relative="1" as="geometry" />
        </mxCell>
        <mxCell id="d-MJY2TgEkJhI2muAv1e-2" style="edgeStyle=orthogonalEdgeStyle;rounded=0;orthogonalLoop=1;jettySize=auto;html=1;entryX=1;entryY=0.5;entryDx=0;entryDy=0;" parent="1" source="d-MJY2TgEkJhI2muAv1e-3" target="d-MJY2TgEkJhI2muAv1e-4" edge="1">
          <mxGeometry relative="1" as="geometry" />
        </mxCell>
        <mxCell id="d-MJY2TgEkJhI2muAv1e-3" value="controllers" style="whiteSpace=wrap;html=1;align=center;" parent="1" vertex="1">
          <mxGeometry x="220" y="210" width="100" height="40" as="geometry" />
        </mxCell>
        <mxCell id="d-MJY2TgEkJhI2muAv1e-4" value="controller type" style="ellipse;whiteSpace=wrap;html=1;align=center;" parent="1" vertex="1">
          <mxGeometry x="40" y="240" width="100" height="40" as="geometry" />
        </mxCell>
        <mxCell id="d-MJY2TgEkJhI2muAv1e-5" value="controllers id" style="ellipse;whiteSpace=wrap;html=1;align=center;fontStyle=4;" parent="1" vertex="1">
          <mxGeometry x="40" y="180" width="100" height="40" as="geometry" />
        </mxCell>
        <mxCell id="9uqExpVD-2GpMVSEPIku-2" value="play with" style="shape=rhombus;perimeter=rhombusPerimeter;whiteSpace=wrap;html=1;align=center;" parent="1" vertex="1">
          <mxGeometry x="220" y="320" width="100" height="50" as="geometry" />
        </mxCell>
        <mxCell id="9uqExpVD-2GpMVSEPIku-3" value="" style="shape=link;html=1;rounded=0;entryX=0.5;entryY=0;entryDx=0;entryDy=0;exitX=0.5;exitY=1;exitDx=0;exitDy=0;" parent="1" source="9uqExpVD-2GpMVSEPIku-2" target="kmE7Hf1DCv8pngG5Te-d-30" edge="1">
          <mxGeometry relative="1" as="geometry">
            <mxPoint x="421" y="329" as="sourcePoint" />
            <mxPoint x="330" y="450" as="targetPoint" />
          </mxGeometry>
        </mxCell>
        <mxCell id="9uqExpVD-2GpMVSEPIku-4" value="1" style="resizable=0;html=1;align=right;verticalAlign=bottom;" parent="9uqExpVD-2GpMVSEPIku-3" connectable="0" vertex="1">
          <mxGeometry x="1" relative="1" as="geometry">
            <mxPoint x="-7" as="offset" />
          </mxGeometry>
        </mxCell>
        <mxCell id="9uqExpVD-2GpMVSEPIku-5" value="" style="endArrow=none;html=1;rounded=0;exitX=0.5;exitY=0;exitDx=0;exitDy=0;entryX=0.5;entryY=1;entryDx=0;entryDy=0;" parent="1" source="9uqExpVD-2GpMVSEPIku-2" target="d-MJY2TgEkJhI2muAv1e-3" edge="1">
          <mxGeometry relative="1" as="geometry">
            <mxPoint x="510" y="370" as="sourcePoint" />
            <mxPoint x="280" y="280" as="targetPoint" />
          </mxGeometry>
        </mxCell>
        <mxCell id="9uqExpVD-2GpMVSEPIku-6" value="M" style="resizable=0;html=1;align=right;verticalAlign=bottom;" parent="9uqExpVD-2GpMVSEPIku-5" connectable="0" vertex="1">
          <mxGeometry x="1" relative="1" as="geometry">
            <mxPoint x="-6" y="20" as="offset" />
          </mxGeometry>
        </mxCell>
        <mxCell id="9uqExpVD-2GpMVSEPIku-7" value="" style="shape=link;html=1;rounded=0;entryX=1;entryY=0.5;entryDx=0;entryDy=0;exitX=0;exitY=0.5;exitDx=0;exitDy=0;" parent="1" source="kmE7Hf1DCv8pngG5Te-d-64" target="kmE7Hf1DCv8pngG5Te-d-1" edge="1">
          <mxGeometry relative="1" as="geometry">
            <mxPoint x="360" y="130" as="sourcePoint" />
            <mxPoint x="360" y="200" as="targetPoint" />
          </mxGeometry>
        </mxCell>
        <mxCell id="9uqExpVD-2GpMVSEPIku-8" value="M" style="resizable=0;html=1;align=right;verticalAlign=bottom;" parent="9uqExpVD-2GpMVSEPIku-7" connectable="0" vertex="1">
          <mxGeometry x="1" relative="1" as="geometry">
            <mxPoint x="13" y="-2" as="offset" />
          </mxGeometry>
        </mxCell>
        <mxCell id="9uqExpVD-2GpMVSEPIku-9" value="state" style="ellipse;whiteSpace=wrap;html=1;align=center;" parent="1" vertex="1">
          <mxGeometry x="220" y="560" width="100" height="40" as="geometry" />
        </mxCell>
        <mxCell id="9uqExpVD-2GpMVSEPIku-13" value="" style="shape=link;html=1;rounded=0;entryX=0;entryY=0.5;entryDx=0;entryDy=0;exitX=1;exitY=0.5;exitDx=0;exitDy=0;" parent="1" source="kmE7Hf1DCv8pngG5Te-d-64" target="kmE7Hf1DCv8pngG5Te-d-24" edge="1">
          <mxGeometry relative="1" as="geometry">
            <mxPoint x="540" y="150" as="sourcePoint" />
            <mxPoint x="470" y="150" as="targetPoint" />
          </mxGeometry>
        </mxCell>
        <mxCell id="9uqExpVD-2GpMVSEPIku-14" value="1" style="resizable=0;html=1;align=right;verticalAlign=bottom;" parent="9uqExpVD-2GpMVSEPIku-13" connectable="0" vertex="1">
          <mxGeometry x="1" relative="1" as="geometry">
            <mxPoint x="-6" y="-2" as="offset" />
          </mxGeometry>
        </mxCell>
        <mxCell id="ZBX8gpUidaj5Vg1-KPUg-3" value="No. controllers" style="ellipse;whiteSpace=wrap;html=1;align=center;" parent="1" vertex="1">
          <mxGeometry x="220" y="500" width="100" height="40" as="geometry" />
        </mxCell>
      </root>
    </mxGraphModel>
  </diagram>
</mxfile>
